# xmcd
#
# Track frame offsets:
#	150
#	13542
#	23550
#	39239
#	48924
#	64494
#	76566
#	88002
#	100543
#	113998
#	123028
#	138506
#	151365
#	164631
#	178685
#	191405
#	204186
#
# Disc length: 2892 seconds
#
# Revision: 0
# Processed by: cddbd v1.5.2PL0 Copyright (c) Steve Scherf et al.
# Submitted via: audiograbber 1.83.01
#
DISCID=cb0b4a11
DTITLE=Tony Bennett - 3 Original Hit Albums - Tony
DYEAR=1900
DGENRE=
TTITLE0=IT HAD TO BE YOU
TTITLE1=YOU CAN DEPEND ON ME
TTITLE2=I'M JUST A LUCKY SO AND SO
TTITLE3=TAKING A CHANCE ON LOVE
TTITLE4=THESE FOOLISH THINGS
TTITLE5=I CAN'T GIVE YOU ANYTHING BUT LOVE
TTITLE6=BOULEVARD OF BROKEN DREAMS
TTITLE7=I'LL BE SEEING YOU
TTITLE8=ALWAYS
TTITLE9=LOVE WALKED IN
TTITLE10=LOST IN THE STARS
TTITLE11=WITHOUT A SONG
TTITLE12=SOMEWHERE ALONG THE WAY
TTITLE13=HAVE A GOOD TIME
TTITLE14=HERE IN MY HEART
TTITLE15=ANYWHERE I WANDER
TTITLE16=RAGS TO RICHES
EXTD=
EXTT0=
EXTT1=
EXTT2=
EXTT3=
EXTT4=
EXTT5=
EXTT6=
EXTT7=
EXTT8=
EXTT9=
EXTT10=
EXTT11=
EXTT12=
EXTT13=
EXTT14=
EXTT15=
EXTT16=
PLAYORDER=
